{"title":"The Transporter 3","uid":8534473,"size":527992120,"categoryP":"video","categoryS":"movies_dvdr","magnet":"?xt=urn:btih:9e5363c531457ce9472b15fbd8e57d072ac3d863&amp;dn=The+Transporter+3&amp;tr=udp%3A%2F%2Ftracker.openbittorrent.com%3A80&amp;tr=udp%3A%2F%2Fopen.demonii.com%3A1337&amp;tr=udp%3A%2F%2Ftracker.coppersurfer.tk%3A6969&amp;tr=udp%3A%2F%2Fexodus.desync.com%3A6969","seeders":2,"leechers":0,"uploader":null,"files":1,"time":1370229677,"description":"Format : MPEG-4\nFormat profile : Base Media\nCodec ID : isom\nFile size : 504 MiB\nDuration : 1h 45mn\nOverall bit rate : 665 Kbps\nMovie name : Transporter_3\nGenre : Action &amp; Adventure\nWriting application : Lavf52.13.0\n\nVideo\nID : 1\nFormat : MPEG-4 Visual\nFormat profile : Simple@L1\nFormat settings, BVOP : No\nFormat settings, QPel : No\nFormat settings, GMC : No warppoints\nFormat settings, Matrix : Default (H.263)\nCodec ID : 20\nDuration : 1h 45mn\nBit rate mode : Variable\nBit rate : 535 Kbps\nWidth : 640 pixels\nHeight : 360 pixels\nDisplay aspect ratio : 16:9\nFrame rate mode : Constant\nFrame rate : 23.976 fps\nColor space : YUV\nChroma subsampling : 4:2:0\nBit depth : 8 bits\nScan type : Progressive\nBits/(Pixel*Frame) : 0.097\nStream size : 405 MiB (80%)\nWriting library : Lavc51.55.0\n\nAudio\nID : 2\nFormat : AAC\nFormat/Info : Advanced Audio Codec\nFormat version : Version 4\nFormat profile : LC\nFormat settings, SBR : No\nCodec ID : 40\nDuration : 1h 45mn\nBit rate mode : Variable\nBit rate : 126 Kbps\nChannel(s) : 2 channels\nChannel positions : Front: L R\nSampling rate : 48.0 KHz\nStream size : 95.3 MiB (19%)","torrent":{"xt":"urn:btih:9e5363c531457ce9472b15fbd8e57d072ac3d863","amp;dn":"The+Transporter+3","amp;tr":["udp%3A%2F%2Ftracker.openbittorrent.com%3A80","udp%3A%2F%2Fopen.demonii.com%3A1337","udp%3A%2F%2Ftracker.coppersurfer.tk%3A6969","udp%3A%2F%2Fexodus.desync.com%3A6969"],"infoHash":"9e5363c531457ce9472b15fbd8e57d072ac3d863","infoHashBuffer":{"type":"Buffer","data":[158,83,99,197,49,69,124,233,71,43,21,251,216,229,125,7,42,195,216,99]},"announce":[],"urlList":[]}}